<svg id="svg" version="1.1" xmlns="http://www.w3.org/2000/svg" xmlns:xlink="http://www.w3.org/1999/xlink" width="400" height="227.6" viewBox="0, 0, 400,227.6"><g id="svgg"><path id="path0" d="M102.858 24.003 C 101.322 24.770,104.684 21.642,62.808 61.269 C 21.319 100.529,24.124 97.663,23.547 101.390 C 22.754 106.514,24.586 108.736,34.100 114.191 C 41.676 118.536,42.329 118.964,43.913 120.627 C 47.534 124.428,49.611 129.901,49.253 134.700 C 49.204 135.360,45.834 150.030,41.764 167.300 C 37.544 185.208,34.319 199.302,34.259 200.100 C 33.892 204.974,36.801 205.523,41.248 201.417 C 46.453 196.612,114.462 132.098,115.250 131.217 C 118.558 127.524,118.561 122.357,115.257 118.788 C 113.998 117.428,112.976 116.774,105.103 112.289 C 97.400 107.901,95.193 105.725,93.193 100.549 C 91.085 95.090,91.004 95.737,96.884 70.900 C 107.335 26.758,106.859 28.852,106.880 27.000 C 106.920 23.611,105.604 22.631,102.858 24.003 " stroke="none" fill="#6c14b4" fill-rule="evenodd"></path><path id="path1" d="M170.367 80.113 C 162.680 81.504,156.297 86.119,153.296 92.456 C 149.759 99.922,151.196 108.872,156.823 114.423 C 160.593 118.141,164.298 119.676,173.692 121.409 C 183.061 123.139,185.425 124.650,185.425 128.912 C 185.425 133.210,181.499 135.807,175.407 135.540 C 168.568 135.240,164.135 131.793,162.887 125.805 C 162.716 124.982,162.559 124.293,162.538 124.273 C 162.517 124.253,159.452 124.970,155.727 125.867 L 148.953 127.496 149.068 128.598 C 149.790 135.494,154.964 142.439,161.955 145.894 C 170.899 150.316,184.368 149.662,191.700 144.451 C 203.355 136.167,203.632 119.700,192.244 112.129 C 188.503 109.643,185.742 108.711,177.325 107.095 C 167.833 105.272,166.300 104.302,166.300 100.116 C 166.300 90.427,183.170 90.635,185.788 100.355 C 185.913 100.820,186.109 101.200,186.224 101.200 C 186.520 101.200,199.277 97.590,199.394 97.473 C 199.884 96.983,197.480 91.106,195.859 88.830 C 190.965 81.958,180.309 78.314,170.367 80.113 M312.800 113.600 L 312.800 147.400 319.900 147.400 L 327.000 147.400 327.000 113.600 L 327.000 79.800 319.900 79.800 L 312.800 79.800 312.800 113.600 M225.900 99.923 C 201.057 104.379,198.832 140.066,222.924 147.663 C 235.740 151.705,249.565 145.331,252.927 133.830 C 253.327 132.462,253.830 132.732,246.957 130.623 C 240.205 128.552,240.475 128.602,240.302 129.390 C 239.582 132.669,235.191 135.600,231.000 135.600 C 223.632 135.600,218.844 128.725,220.707 120.821 C 222.877 111.617,235.432 109.725,239.353 118.011 C 240.257 119.921,239.318 119.957,246.701 117.729 L 252.900 115.858 252.836 115.285 C 252.437 111.746,247.940 105.582,243.961 103.123 C 239.031 100.077,231.994 98.830,225.900 99.923 M275.447 99.899 C 267.078 101.416,260.958 107.054,259.922 114.200 L 259.791 115.100 265.546 116.269 C 268.711 116.913,271.535 117.483,271.822 117.537 C 272.296 117.627,272.354 117.566,272.468 116.858 C 273.632 109.575,286.769 108.513,286.795 115.700 C 286.804 118.151,286.259 118.391,277.693 119.723 C 268.705 121.119,266.561 121.812,263.559 124.287 C 258.754 128.251,257.514 135.615,260.694 141.302 C 265.415 149.745,280.020 151.316,286.763 144.108 L 287.956 142.832 288.078 143.441 C 288.145 143.776,288.201 144.466,288.202 144.975 C 288.203 145.484,288.260 146.238,288.328 146.650 L 288.452 147.400 294.926 147.400 C 300.961 147.400,301.400 147.376,301.393 147.050 C 301.390 146.858,301.292 146.070,301.176 145.300 C 301.054 144.490,300.902 137.497,300.816 128.700 C 300.647 111.496,300.742 112.516,298.965 108.822 C 295.596 101.818,285.659 98.048,275.447 99.899 M352.647 99.899 C 344.278 101.416,338.158 107.054,337.122 114.200 L 336.991 115.100 342.746 116.269 C 345.911 116.913,348.735 117.483,349.022 117.537 C 349.496 117.627,349.554 117.566,349.668 116.858 C 350.832 109.575,363.969 108.513,363.995 115.700 C 364.004 118.151,363.459 118.391,354.893 119.723 C 345.905 121.119,343.761 121.812,340.759 124.287 C 335.954 128.251,334.714 135.615,337.894 141.302 C 342.615 149.745,357.220 151.316,363.963 144.108 L 365.156 142.832 365.278 143.441 C 365.345 143.776,365.401 144.466,365.402 144.975 C 365.403 145.484,365.460 146.238,365.528 146.650 L 365.652 147.400 372.126 147.400 C 378.161 147.400,378.600 147.376,378.593 147.050 C 378.590 146.858,378.492 146.070,378.376 145.300 C 378.254 144.490,378.102 137.497,378.016 128.700 C 377.847 111.496,377.942 112.516,376.165 108.822 C 372.796 101.818,362.859 98.048,352.647 99.899 M286.916 129.150 C 286.601 133.832,285.114 136.417,282.040 137.628 C 280.393 138.277,276.870 138.300,275.700 137.668 C 272.026 135.686,272.396 130.580,276.323 129.080 C 276.967 128.834,285.456 127.324,286.774 127.221 C 286.996 127.204,287.023 127.564,286.916 129.150 M364.116 129.150 C 363.801 133.832,362.314 136.417,359.240 137.628 C 357.593 138.277,354.070 138.300,352.900 137.668 C 349.226 135.686,349.596 130.580,353.523 129.080 C 354.167 128.834,362.656 127.324,363.974 127.221 C 364.196 127.204,364.223 127.564,364.116 129.150 " stroke="none" fill="#040404" fill-rule="evenodd"></path></g></svg>